<svg width="50" height="50" viewBox="0 0 59 59" fill="none" xmlns="http://www.w3.org/2000/svg">
    <path d="M29.5014 18.4375C23.4052 18.4375 18.4384 23.4041 18.4384 29.5C18.4384 35.5959 23.4052 40.5625 29.5014 40.5625C35.5976 40.5625 40.5645 35.5959 40.5645 29.5C40.5645 23.4041 35.5976 18.4375 29.5014 18.4375ZM57.8966 27.7139L46.9833 22.2633L50.8439 10.6938C51.3625 9.12656 49.8759 7.64004 48.3201 8.17012L36.75 12.0305L31.2876 1.10625C30.5501 -0.36875 28.4527 -0.36875 27.7152 1.10625L22.2644 12.0189L10.6827 8.15859C9.11548 7.64004 7.62889 9.12656 8.15899 10.6822L12.0195 22.2518L1.1063 27.7139C-0.368768 28.4514 -0.368768 30.5486 1.1063 31.2861L12.0195 36.7367L8.15899 48.3178C7.64041 49.885 9.127 51.3715 10.6827 50.8414L22.2528 46.9811L27.7037 57.8937C28.4412 59.3687 30.5386 59.3687 31.2761 57.8937L36.727 46.9811L48.2971 50.8414C49.8643 51.36 51.3509 49.8734 50.8208 48.3178L46.9603 36.7482L57.8735 31.2977C59.3716 30.5486 59.3716 28.4514 57.8966 27.7139ZM39.9306 39.9287C34.1802 45.6789 24.8227 45.6789 19.0722 39.9287C13.3217 34.1785 13.3217 24.8215 19.0722 19.0713C24.8227 13.3211 34.1802 13.3211 39.9306 19.0713C45.6811 24.8215 45.6811 34.1785 39.9306 39.9287Z" fill="#291F1F"/>
</svg>